<svg width="64" height="46" viewBox="0 0 64 46" fill="none" xmlns="http://www.w3.org/2000/svg">
<path d="M59.5862 1.48276H4.4138C2.28083 1.48276 0.551727 3.21186 0.551727 5.34483V40.6552C0.551727 42.7881 2.28083 44.5172 4.4138 44.5172H59.5862C61.7192 44.5172 63.4483 42.7881 63.4483 40.6552V5.34483C63.4483 3.21186 61.7192 1.48276 59.5862 1.48276Z" fill="#006FCF" stroke="#F3F3F3" stroke-width="1.10345"/>
<path fill-rule="evenodd" clip-rule="evenodd" d="M13.0904 32.8137V23.7274H23.3787L24.4824 25.073L25.6227 23.7274H62.9663V32.1871C62.9663 32.1871 61.9897 32.8047 60.8603 32.8137H40.1823L38.9378 31.3814V32.8137H34.8597V30.3687C34.8597 30.3687 34.3026 30.71 33.0983 30.71H31.7101V32.8137H25.5355L24.4332 31.4393L23.3141 32.8137H13.0904ZM1.10345 16.879L3.41821 11.8211H7.42136L8.73501 14.6544V11.8211H13.7112L14.4934 13.8688L15.2514 11.8211H37.5897V12.8506C37.5897 12.8506 38.764 11.8211 40.694 11.8211L47.942 11.8449L49.2329 14.641V11.8211H53.3973L54.5435 13.4272V11.8211H58.746V20.9075H54.5435L53.4451 19.2962V20.9075H47.3267L46.7113 19.4751H45.0665L44.4612 20.9075H40.312C38.6513 20.9075 37.5897 19.899 37.5897 19.899V20.9075H31.3336L30.0919 19.4751V20.9075H6.82832L6.21345 19.4751H4.57385L3.96333 20.9075H1.10345V16.879ZM1.11539 19.7448L4.2375 12.9413H6.60445L9.72358 19.7448H7.64615L7.07308 18.3825H3.72412L3.14805 19.7448H1.11539ZM6.41344 16.9054L5.39262 14.5246L4.36883 16.9054H6.41344ZM9.93849 19.7437V12.9401L12.827 12.9502L14.507 17.3366L16.1469 12.9401H19.0123V19.7437H17.1976V14.7305L15.2738 19.7437H13.6823L11.7533 14.7305V19.7437H9.93849ZM20.254 19.7437V12.9401H26.1759V14.4619H22.0878V15.6258H26.0803V17.058H22.0878V18.2666H26.1759V19.7437H20.254ZM27.2265 19.7448V12.9413H31.265C32.603 12.9413 33.802 13.7168 33.802 15.1485C33.802 16.3725 32.7912 17.1608 31.8112 17.2382L34.1991 19.7448H31.9814L29.8054 17.3278H29.0412V19.7448H27.2265ZM31.1157 14.4632H29.0412V15.8954H31.1426C31.5063 15.8954 31.9753 15.6313 31.9753 15.1793C31.9753 14.828 31.6134 14.4632 31.1157 14.4632ZM36.3958 19.7437H34.5429V12.9401H36.3958V19.7437ZM40.7895 19.7437H40.3895C38.4543 19.7437 37.2793 18.3147 37.2793 16.3699C37.2793 14.377 38.4412 12.9401 40.885 12.9401H42.8908V14.5515H40.8117C39.8196 14.5515 39.118 15.2772 39.118 16.3867C39.118 17.7043 39.9202 18.2577 41.076 18.2577H41.5536L40.7895 19.7437ZM41.6162 19.7448L44.7383 12.9413H47.1053L50.2244 19.7448H48.147L47.574 18.3825H44.225L43.6489 19.7448H41.6162ZM46.9143 16.9054L45.8935 14.5246L44.8697 16.9054H46.9143ZM50.4364 19.7437V12.9401H52.7436L55.6896 17.2147V12.9401H57.5044V19.7437H55.2717L52.2512 15.3572V19.7437H50.4364ZM14.3321 31.65V24.8464H20.254V26.3683H16.166V27.5321H20.1585V28.9643H16.166V30.173H20.254V31.65H14.3321ZM43.3493 31.65V24.8464H49.2711V26.3683H45.1831V27.5321H49.1565V28.9643H45.1831V30.173H49.2711V31.65H43.3493ZM20.4839 31.65L23.3672 28.2901L20.4151 24.8464H22.7016L24.4596 26.9753L26.2236 24.8464H28.4204L25.5072 28.2482L28.3959 31.65H26.1099L24.4029 29.5547L22.7373 31.65H20.4839ZM28.6114 31.6511V24.8476H32.62C34.2648 24.8476 35.2258 25.8411 35.2258 27.1359C35.2258 28.699 34.0007 29.5026 32.3842 29.5026H30.4739V31.6511H28.6114ZM32.4857 26.3861H30.4739V27.9528H32.4798C33.0098 27.9528 33.3812 27.6235 33.3812 27.1695C33.3812 26.6862 33.0079 26.3861 32.4857 26.3861ZM36.0138 31.65V24.8464H40.0522C41.3904 24.8464 42.5894 25.6219 42.5894 27.0536C42.5894 28.2776 41.5785 29.0659 40.5984 29.1434L42.9863 31.65H40.7686L38.5927 29.2329H37.8285V31.65H36.0138ZM39.903 26.3683H37.8285V27.8005H39.9298C40.2936 27.8005 40.7626 27.5365 40.7626 27.0844C40.7626 26.7331 40.4007 26.3683 39.903 26.3683ZM50.1117 31.65V30.173H53.7436C54.2809 30.173 54.5137 29.9007 54.5137 29.6022C54.5137 29.3162 54.2817 29.027 53.7436 29.027H52.1023C50.6758 29.027 49.8812 28.2123 49.8812 26.9893C49.8812 25.8984 50.6088 24.8464 52.7287 24.8464H56.2627L55.4986 26.3772H52.4422C51.8579 26.3772 51.678 26.6645 51.678 26.939C51.678 27.221 51.9004 27.5321 52.3467 27.5321H54.0659C55.6562 27.5321 56.3463 28.3775 56.3463 29.4847C56.3463 30.675 55.5774 31.65 53.9794 31.65H50.1117ZM56.5063 31.65V30.173H60.1382C60.6756 30.173 60.9083 29.9007 60.9083 29.6022C60.9083 29.3162 60.6763 29.027 60.1382 29.027H58.497C57.0704 29.027 56.2759 28.2123 56.2759 26.9893C56.2759 25.8984 57.0035 24.8464 59.1234 24.8464H62.6574L61.8933 26.3772H58.8369C58.2526 26.3772 58.0727 26.6645 58.0727 26.939C58.0727 27.221 58.295 27.5321 58.7413 27.5321H60.4606C62.0509 27.5321 62.741 28.3775 62.741 29.4847C62.741 30.675 61.972 31.65 60.374 31.65H56.5063Z" fill="white"/>
</svg>
