<svg width="72" height="72" viewBox="0 0 72 72" fill="none" xmlns="http://www.w3.org/2000/svg">
<g clip-path="url(#clip0_2_40)">
<path d="M69.333 2.23572H2.66679C1.19401 2.23572 0 3.42973 0 4.90251V23.4339C0 24.9067 1.19401 26.1007 2.66679 26.1007H8.46724L9.29679 20.7671H5.33358V7.5693H66.6662V20.7671H62.7029C62.9795 22.5449 63.2556 24.3228 63.5324 26.1007H69.3332C70.806 26.1007 72 24.9067 72 23.4339V4.90251C71.9998 3.42973 70.806 2.23572 69.333 2.23572Z" fill="white"/>
<path d="M65.7654 56.0784C63.5767 42.002 61.3883 27.9258 59.1983 13.8503C58.8405 11.5499 56.957 9.81524 54.8166 9.81524L40.5159 9.81506L17.1834 9.81524C15.043 9.81524 13.1592 11.5499 12.8015 13.8503L9.75318 33.4521C8.12199 43.9379 6.49116 54.4241 4.8614 64.9099C4.67614 66.1004 5.01696 67.3054 5.79637 68.2155C6.63961 69.1999 7.91878 69.7645 9.30552 69.7645L28.8812 69.7644L62.694 69.7645C64.0809 69.7645 65.3597 69.1999 66.2029 68.2153C66.9824 67.3054 67.3232 66.1004 67.1379 64.9099L65.7654 56.0784ZM34.3065 64.4308H28.8814L10.3335 64.431C11.896 54.3777 13.4597 44.3248 15.0233 34.2715L17.9973 15.1485L34.7643 15.1483C34.6107 31.5757 34.4603 48.0033 34.3065 64.4308ZM51.5724 64.4308C50.1686 48.0039 48.7685 31.5757 47.3647 15.1485L54.0024 15.1486C56.168 29.0647 58.3316 42.9816 60.4953 56.8978L61.6665 64.431L51.5724 64.4308Z" fill="white"/>
</g>
<defs>
<clipPath id="clip0_2_40">
<rect width="72" height="72" fill="white"/>
</clipPath>
</defs>
</svg>
