<svg width="64" height="42" viewBox="0 0 64 42" fill="none" xmlns="http://www.w3.org/2000/svg">
<path d="M4.51218 0.903992C2.02064 0.903992 0 2.87985 0 5.3166V36.6834C0 39.1206 2.01999 41.096 4.51218 41.096H59.4878C61.9794 41.096 64 39.1201 64 36.6834V22.4486V5.3166C64 2.87939 61.98 0.903992 59.4878 0.903992H4.51218Z" fill="#4D4D4D"/>
<path d="M26.8433 13.8916C27.5683 13.8916 28.1764 14.0394 28.9165 14.3961V16.2808C28.2155 15.6294 27.6074 15.3568 26.8032 15.3568C25.2226 15.3568 23.9795 16.6006 23.9795 18.1776C23.9795 19.8405 25.1841 21.0103 26.8816 21.0103C27.6457 21.0103 28.2425 20.7518 28.9165 20.1108V21.9966C28.1501 22.3396 27.5289 22.475 26.8032 22.475C24.2368 22.475 22.2426 20.6032 22.2426 18.1892C22.2426 15.8012 24.2899 13.8916 26.8433 13.8916ZM18.875 13.9435C19.8223 13.9435 20.6892 14.2517 21.4139 14.8543L20.532 15.9517C20.093 15.484 19.6778 15.2868 19.1729 15.2868C18.4465 15.2868 17.9175 15.6798 17.9175 16.197C17.9175 16.6406 18.2145 16.8754 19.2258 17.2311C21.1429 17.8974 21.7111 18.4882 21.7111 19.7929C21.7111 21.3829 20.4823 22.4896 18.7309 22.4896C17.4485 22.4896 16.5161 22.0095 15.7396 20.9263L16.8282 19.9296C17.2164 20.6429 17.8639 21.025 18.6678 21.025C19.4196 21.025 19.9763 20.5319 19.9763 19.8665C19.9763 19.5216 19.8077 19.2259 19.471 19.0168C19.3015 18.9178 18.9657 18.7702 18.3059 18.549C16.723 18.0074 16.18 17.4285 16.18 16.297C16.18 14.953 17.3462 13.9435 18.875 13.9435ZM38.1343 14.0867H39.9753L42.2796 19.6031L44.6136 14.0867H46.4407L42.7078 22.5103H41.801L38.1343 14.0867ZM5.5314 14.0993H8.00528C10.7385 14.0993 12.6439 15.7877 12.6439 18.2115C12.6439 19.4201 12.061 20.5886 11.0753 21.3641C10.2459 22.0187 9.30083 22.3122 7.9923 22.3122H5.5314V14.0993ZM13.4194 14.0993H15.1048V22.3122H13.4194V14.0993ZM47.2027 14.0993H51.9824V15.4909H48.8868V17.3139H51.8683V18.7048H48.8868V20.9218H51.9824V22.3122H47.2027V14.0993ZM53.0987 14.0993H55.5976C57.5414 14.0993 58.6553 14.9866 58.6553 16.5242C58.6553 17.7816 57.9567 18.6068 56.6872 18.8524L59.407 22.3122H57.3344L55.0018 19.0129H54.782V22.3122H53.0987V14.0993ZM54.782 15.3929V17.8802H55.2745C56.3507 17.8802 56.9211 17.436 56.9211 16.6104C56.9211 15.8111 56.3506 15.3929 55.3011 15.3929H54.782ZM7.21554 15.4909V20.9218H7.66778C8.75686 20.9218 9.44466 20.7234 9.97419 20.2691C10.5571 19.7757 10.9077 18.9879 10.9077 18.1997C10.9077 17.4128 10.5571 16.6485 9.97419 16.1551C9.41752 15.6763 8.75686 15.4909 7.66778 15.4909H7.21554Z" fill="white"/>
<path d="M34.062 13.8371C36.6007 13.8371 38.6586 15.7287 38.6586 18.0656V18.0682C38.6586 20.4051 36.6007 22.2994 34.062 22.2994C31.5233 22.2994 29.4654 20.4051 29.4654 18.0682V18.0656C29.4654 15.7287 31.5233 13.8371 34.062 13.8371ZM63.9985 24.0373C61.8611 25.5079 45.8589 36.0179 18.152 41.0947H59.4863C61.9779 41.0947 63.9985 39.1189 63.9985 36.6821V24.0373Z" fill="#F47216"/>
</svg>
