<svg width="64" height="64" viewBox="0 0 64 64" fill="none" xmlns="http://www.w3.org/2000/svg">
<path d="M59.5862 10.4828H4.4138C2.28083 10.4828 0.551727 12.2119 0.551727 14.3448V49.6552C0.551727 51.7881 2.28083 53.5172 4.4138 53.5172H59.5862C61.7192 53.5172 63.4483 51.7881 63.4483 49.6552V14.3448C63.4483 12.2119 61.7192 10.4828 59.5862 10.4828Z" fill="white" stroke="#F3F3F3" stroke-width="1.10345"/>
<path fill-rule="evenodd" clip-rule="evenodd" d="M23.4471 44.0172V45.6468V47.2765H22.7328V46.8808C22.5063 47.1743 22.1626 47.3585 21.6954 47.3585C20.7742 47.3585 20.0521 46.6428 20.0521 45.6468C20.0521 44.6517 20.7742 43.9352 21.6954 43.9352C22.1626 43.9352 22.5063 44.1194 22.7328 44.4129V44.0172H23.4471ZM21.7842 44.6034C21.1659 44.6034 20.7875 45.074 20.7875 45.6468C20.7875 46.2197 21.1659 46.6903 21.7842 46.6903C22.375 46.6903 22.7738 46.24 22.7738 45.6468C22.7738 45.0537 22.375 44.6034 21.7842 44.6034ZM47.5838 45.6468C47.5838 45.074 47.9622 44.6034 48.5804 44.6034C49.172 44.6034 49.57 45.0537 49.57 45.6468C49.57 46.24 49.172 46.6903 48.5804 46.6903C47.9622 46.6903 47.5838 46.2197 47.5838 45.6468ZM50.2442 42.7083V45.6468V47.2765H49.5292V46.8808C49.3025 47.1743 48.9588 47.3585 48.4916 47.3585C47.5704 47.3585 46.8483 46.6428 46.8483 45.6468C46.8483 44.6517 47.5704 43.9352 48.4916 43.9352C48.9588 43.9352 49.3025 44.1194 49.5292 44.4129V42.7083H50.2442ZM32.3132 44.5698C32.7733 44.5698 33.069 44.8562 33.1446 45.3605H31.44C31.5163 44.8898 31.8042 44.5698 32.3132 44.5698ZM30.6911 45.6468C30.6911 44.6306 31.3644 43.9352 32.3273 43.9352C33.2477 43.9352 33.8801 44.6306 33.8871 45.6468C33.8871 45.742 33.8801 45.8311 33.873 45.9192H31.4337C31.5368 46.5062 31.956 46.7177 32.4161 46.7177C32.7457 46.7177 33.0966 46.5943 33.3719 46.3766L33.7219 46.9019C33.3232 47.2359 32.8701 47.3585 32.3753 47.3585C31.392 47.3585 30.6911 46.6834 30.6911 45.6468ZM40.9518 45.6468C40.9518 45.074 41.3302 44.6034 41.9485 44.6034C42.5392 44.6034 42.9381 45.0537 42.9381 45.6468C42.9381 46.24 42.5392 46.6903 41.9485 46.6903C41.3302 46.6903 40.9518 46.2197 40.9518 45.6468ZM43.6114 44.0172V45.6468V47.2765H42.8971V46.8808C42.6698 47.1743 42.3269 47.3585 41.8595 47.3585C40.9384 47.3585 40.2163 46.6428 40.2163 45.6468C40.2163 44.6517 40.9384 43.9352 41.8595 43.9352C42.3269 43.9352 42.6698 44.1194 42.8971 44.4129V44.0172H43.6114ZM36.918 45.6468C36.918 46.6357 37.6118 47.3585 38.6706 47.3585C39.1654 47.3585 39.495 47.2492 39.8522 46.9697L39.5091 46.3969C39.241 46.5881 38.9592 46.6903 38.6494 46.6903C38.079 46.6834 37.6598 46.2743 37.6598 45.6468C37.6598 45.0194 38.079 44.6103 38.6494 44.6034C38.9592 44.6034 39.241 44.7056 39.5091 44.8968L39.8522 44.3239C39.495 44.0445 39.1654 43.9352 38.6706 43.9352C37.6118 43.9352 36.918 44.658 36.918 45.6468ZM45.2609 44.4129C45.4465 44.1265 45.7148 43.9352 46.127 43.9352C46.2717 43.9352 46.4778 43.9626 46.6359 44.0242L46.4157 44.6923C46.2646 44.6306 46.1136 44.6103 45.9689 44.6103C45.5016 44.6103 45.268 44.91 45.268 45.4494V47.2765H44.553V44.0172H45.2609V44.4129ZM26.9799 44.2763C26.636 44.0515 26.1626 43.9352 25.6402 43.9352C24.808 43.9352 24.2722 44.3309 24.2722 44.9788C24.2722 45.5103 24.6711 45.838 25.4058 45.9403L25.7432 45.9879C26.135 46.0426 26.3199 46.1448 26.3199 46.3289C26.3199 46.5811 26.0587 46.7246 25.571 46.7246C25.0762 46.7246 24.7191 46.5678 24.4784 46.3836L24.1417 46.9354C24.5334 47.2219 25.0282 47.3585 25.5639 47.3585C26.5126 47.3585 27.0624 46.9151 27.0624 46.2946C27.0624 45.7217 26.6298 45.422 25.9147 45.3198L25.5781 45.2714C25.269 45.2308 25.0211 45.17 25.0211 44.9514C25.0211 44.7126 25.2547 44.5698 25.6465 44.5698C26.0658 44.5698 26.4716 44.7266 26.6707 44.8492L26.9799 44.2763ZM35.3307 44.4129C35.5155 44.1265 35.7837 43.9352 36.1959 43.9352C36.3407 43.9352 36.5468 43.9626 36.7048 44.0242L36.4845 44.6923C36.3336 44.6306 36.1825 44.6103 36.0378 44.6103C35.5706 44.6103 35.337 44.91 35.337 45.4494V47.2765H34.6227V44.0172H35.3307V44.4129ZM30.1003 44.0172H28.9322V43.0283H28.2101V44.0172H27.5438V44.6649H28.2101V46.1518C28.2101 46.9081 28.5058 47.3585 29.3507 47.3585C29.6606 47.3585 30.0178 47.2632 30.2443 47.1063L30.0382 46.4991C29.825 46.6217 29.5914 46.6834 29.4058 46.6834C29.0486 46.6834 28.9322 46.4648 28.9322 46.1377V44.6649H30.1003V44.0172ZM19.4204 45.2308V47.2765H18.6983V45.4626C18.6983 44.91 18.4647 44.6034 17.977 44.6034C17.5026 44.6034 17.173 44.9038 17.173 45.4697V47.2765H16.4509V45.4626C16.4509 44.91 16.211 44.6034 15.7366 44.6034C15.2481 44.6034 14.932 44.9038 14.932 45.4697V47.2765H14.2107V44.0172H14.9257V44.4191C15.1939 44.0375 15.5369 43.9352 15.8877 43.9352C16.3895 43.9352 16.7467 44.1538 16.9733 44.5151C17.276 44.0578 17.7087 43.9282 18.128 43.9352C18.9256 43.9423 19.4204 44.4605 19.4204 45.2308Z" fill="#231F20"/>
<path d="M37.5686 38.4789H26.7431V19.1761H37.5686V38.4789Z" fill="#FF5F00"/>
<path d="M27.4299 28.8279C27.4299 24.9122 29.2776 21.4242 32.155 19.1765C30.0509 17.5328 27.3952 16.5517 24.5091 16.5517C17.6766 16.5517 12.1379 22.0479 12.1379 28.8279C12.1379 35.6079 17.6766 41.1041 24.5091 41.1041C27.3952 41.1041 30.0509 40.123 32.155 38.4793C29.2776 36.2316 27.4299 32.7436 27.4299 28.8279Z" fill="#EB001B"/>
<path d="M52.173 28.8279C52.173 35.6079 46.6344 41.1041 39.8018 41.1041C36.9156 41.1041 34.2601 40.123 32.155 38.4793C35.0333 36.2316 36.8811 32.7436 36.8811 28.8279C36.8811 24.9122 35.0333 21.4242 32.155 19.1765C34.2601 17.5328 36.9156 16.5517 39.8018 16.5517C46.6344 16.5517 52.173 22.0479 52.173 28.8279Z" fill="#F79E1B"/>
</svg>
