<svg width="100" height="86" viewBox="0 0 100 86" fill="none" xmlns="http://www.w3.org/2000/svg">
<path d="M73.75 45.9083H12.2231V49.6948H70.163C71.4166 48.4417 72.6065 47.1753 73.75 45.9083Z" fill="#00F837"/>
<path d="M88.7568 14.9317H12.2231V43.7352H75.6567C84.5301 33.2316 89.4233 22.5951 88.7568 14.9317ZM69.5999 36.1483C67.9301 37.1818 65.9 38.0214 63.6135 38.6119C61.3169 39.1985 58.7802 39.5253 56.1004 39.5253C53.4306 39.5253 50.8938 39.1985 48.6006 38.6085C46.3208 38.022 44.2907 37.1818 42.617 36.1483C40.9601 35.1248 39.6601 33.9182 38.8071 32.5881C37.9602 31.278 37.5602 29.8546 37.6837 28.3815C37.8071 26.9279 38.4272 25.5648 39.4406 24.3347C40.4472 23.118 41.8371 22.0381 43.5075 21.1382C45.1644 20.2415 47.1074 19.5282 49.2341 19.0349C51.3541 18.545 53.6742 18.2718 56.0976 18.2718C58.5276 18.2718 60.8477 18.5416 62.9744 19.0349C65.1012 19.5282 67.048 20.2449 68.7044 21.1382C70.3809 22.0381 71.7713 23.118 72.778 24.3347C73.7981 25.5648 74.4115 26.9279 74.5316 28.3815C74.655 29.8546 74.2584 31.278 73.4115 32.5881C72.5601 33.9182 71.2568 35.1282 69.5999 36.1483Z" fill="#00F837"/>
<path d="M63.59 29.2949C63.4035 29.0781 63.1733 28.8815 62.8968 28.7016C62.6169 28.5217 62.2968 28.358 61.927 28.215C61.7035 28.1251 61.4337 28.0352 61.1069 27.9452C60.7801 27.8553 60.4136 27.7586 59.9902 27.6687C59.5734 27.5754 59.1003 27.4787 58.5869 27.3821C58.0668 27.2855 57.497 27.1888 56.8735 27.0922L56.8668 22.7454C57.2199 22.7487 57.5567 22.7756 57.8634 22.8152C58.1735 22.8588 58.4634 22.9186 58.7232 22.9951C58.9829 23.0716 59.2232 23.1683 59.4399 23.2817C59.6567 23.3951 59.8499 23.5286 60.0231 23.675C60.1131 23.7549 60.1896 23.8414 60.27 23.928C60.3432 24.018 60.4069 24.1113 60.4633 24.2046C60.5164 24.3012 60.56 24.4012 60.6002 24.5079C60.6337 24.6112 60.6633 24.7179 60.6767 24.8347H63.4599C63.4297 24.5844 63.38 24.3481 63.28 24.1213C63.2001 23.8979 63.0733 23.6878 62.9269 23.4878C62.7739 23.2845 62.5901 23.0979 62.3705 22.9247C62.1638 22.7515 61.9141 22.5845 61.627 22.4381C61.3471 22.2851 61.0404 22.1516 60.7035 22.0314C60.3566 21.9147 59.9935 21.8147 59.5935 21.7281C59.2002 21.6449 58.7701 21.575 58.3103 21.5214C57.8573 21.4683 57.3701 21.4315 56.8601 21.408V20.2846H55.3836V21.4348C54.8635 21.4348 54.3736 21.4616 53.9172 21.5046C53.4507 21.5516 53.0139 21.6181 52.6105 21.708C52.2038 21.7979 51.824 21.9113 51.4804 22.0449C51.1301 22.1817 50.8106 22.3348 50.5173 22.5113C50.2207 22.6878 49.9575 22.8677 49.7341 23.0582C49.5073 23.2482 49.3173 23.4448 49.1676 23.6448C49.0146 23.8481 48.9011 24.0548 48.8207 24.2682C48.7408 24.4816 48.6905 24.7017 48.6872 24.9313C48.6738 25.1844 48.7039 25.428 48.7604 25.6514C48.8201 25.8782 48.9134 26.0916 49.0403 26.295C49.1704 26.495 49.3335 26.6816 49.5302 26.8514C49.7335 27.0246 49.9704 27.1849 50.2402 27.3279C50.51 27.4748 50.8234 27.6111 51.1703 27.738C51.5234 27.8648 51.9072 27.9815 52.3368 28.0849C52.7669 28.1882 53.2301 28.2849 53.73 28.3648C54.2367 28.448 54.7769 28.5178 55.3501 28.5782L55.3367 33.735C54.8736 33.7115 54.4434 33.6685 54.0568 33.6082C53.6703 33.5484 53.32 33.4679 53.0005 33.3646C52.6871 33.2646 52.4072 33.1445 52.167 33.0048C51.9234 32.8646 51.7167 32.7048 51.5502 32.5249C51.4603 32.4216 51.3737 32.3048 51.3 32.178C51.2268 32.0445 51.1597 31.9015 51.1033 31.7412C51.0469 31.5814 51 31.411 50.9698 31.2211C50.9329 31.0378 50.9067 30.8345 50.8966 30.6144H48.0397C48.0297 30.8876 48.0397 31.1445 48.0665 31.3876C48.0934 31.6311 48.1464 31.8607 48.2135 32.0808C48.2833 32.2976 48.3732 32.5009 48.4866 32.6909C48.5933 32.8808 48.7269 33.0573 48.8732 33.221C49.1497 33.5177 49.49 33.7841 49.8933 34.021C50.3033 34.2545 50.7765 34.4578 51.3167 34.6243C51.8603 34.7908 52.4602 34.9277 53.1267 35.0243C53.7965 35.1243 54.5267 35.1908 55.3333 35.2176V37.151H56.9232L56.9199 35.2209C57.4098 35.1908 57.883 35.1511 58.3198 35.1042C58.76 35.0539 59.1701 34.9941 59.55 34.9277C59.9365 34.8612 60.2834 34.7874 60.6002 34.7042C60.9203 34.6176 61.2136 34.5243 61.4667 34.4243C61.9398 34.2411 62.3499 34.031 62.6968 33.7841C63.0437 33.5406 63.3269 33.2707 63.5632 32.964C63.7833 32.6607 63.9599 32.3305 64.0532 31.9708C64.1599 31.6144 64.2034 31.2205 64.1934 30.8043C64.1833 30.5178 64.1235 30.2446 64.0269 29.9943C63.9236 29.7384 63.7766 29.5083 63.59 29.2949ZM55.3568 26.9184C55.0635 26.8849 54.7769 26.8419 54.5166 26.795C54.2434 26.7447 53.9965 26.695 53.7602 26.6352C53.5267 26.5754 53.3071 26.5117 53.1038 26.4386C52.9005 26.3687 52.7139 26.2916 52.534 26.2084C52.3675 26.1252 52.2206 26.0352 52.0904 25.9319C51.9603 25.8352 51.8603 25.7252 51.7703 25.6084C51.6871 25.4917 51.6201 25.3682 51.577 25.2352C51.5335 25.1017 51.5139 24.9621 51.5173 24.8152C51.5173 24.6917 51.5374 24.5749 51.5837 24.4587C51.6206 24.342 51.6804 24.2219 51.7536 24.1057C51.8234 23.9923 51.9267 23.8755 52.0334 23.7621C52.1502 23.6487 52.2865 23.5387 52.4368 23.4286C52.5804 23.3186 52.7602 23.2186 52.9502 23.1353C53.1468 23.0521 53.3669 22.9823 53.6133 22.9219C53.8602 22.8655 54.1233 22.8186 54.42 22.7884C54.7132 22.7549 55.0333 22.7381 55.3764 22.7286L55.3568 26.9184ZM61.2566 31.625C61.2331 31.7451 61.1968 31.8518 61.16 31.9652C61.1097 32.0752 61.0566 32.1786 60.9935 32.2853C60.9237 32.3853 60.8466 32.4853 60.7633 32.5819C60.5868 32.7685 60.3734 32.9322 60.1231 33.0786C59.8762 33.2221 59.5863 33.345 59.2667 33.4484C58.9466 33.5484 58.5936 33.6283 58.1969 33.6852C57.807 33.745 57.3735 33.7785 56.9104 33.7953L56.8903 28.8089C57.2238 28.8619 57.5305 28.9156 57.8171 28.9686C58.1003 29.0251 58.3707 29.0753 58.6036 29.1318C58.8405 29.1882 59.0634 29.2452 59.2505 29.2982C59.4472 29.358 59.6103 29.4183 59.7539 29.4781C60.0069 29.5781 60.227 29.6915 60.4103 29.8183C60.5968 29.9384 60.7572 30.0748 60.8901 30.225C61.0136 30.3753 61.1102 30.5351 61.1767 30.7082C61.2432 30.8814 61.2767 31.0714 61.2801 31.2714C61.2868 31.3915 61.2767 31.5082 61.2566 31.625Z" fill="#00F837"/>
<path d="M68.41 51.3785H12.2231V55.1683H64.2196C65.6699 53.9186 67.0698 52.655 68.41 51.3785Z" fill="#00F837"/>
<path d="M88.4032 43.7285H100V22.4348C98.1933 28.8452 94.2264 36.1952 88.4032 43.7285Z" fill="#00F837"/>
<path d="M78.2365 55.1616H100V51.3718H81.9C80.7303 52.6449 79.5001 53.9052 78.2365 55.1616Z" fill="#00F837"/>
<path d="M72.4099 60.6352H100V56.8521H76.5131C75.1902 58.1218 73.8199 59.3849 72.4099 60.6352Z" fill="#00F837"/>
<path d="M83.4034 49.6953H100V45.9088H86.6334C85.6066 47.1686 84.5301 48.4317 83.4034 49.6953Z" fill="#00F837"/>
<path d="M62.2365 56.8515H12.2231V60.6346H57.2964C58.9533 59.4352 60.6002 58.1883 62.2365 56.8515Z" fill="#00F837"/>
<path d="M68.4999 63.9881C67.6067 64.7216 66.7034 65.4015 65.8067 66.1048H100V62.3184H70.4434C69.7932 62.8753 69.1664 63.4418 68.4999 63.9881Z" fill="#00F837"/>
<path d="M54.93 62.3217H12.2197V66.1082H48.9129C50.91 64.9451 52.9167 63.6948 54.93 62.3217Z" fill="#00F837"/>
<path d="M94.47 5.30853C90.0802 -0.0348618 81.0034 -0.681209 69.8731 2.58181C75.3265 2.37511 79.723 3.73205 82.3363 6.91183C90.083 16.3517 79.423 37.9186 58.5198 55.0918C37.6166 72.2582 14.3833 78.5351 6.64001 69.0952C4.02669 65.9154 3.55017 61.3351 4.8099 56.0286C-0.556959 66.3154 -1.68318 75.3453 2.70662 80.6853C11.5164 91.4151 39.2032 83.2422 64.5464 62.4223C89.8802 41.6118 103.28 16.0417 94.47 5.30853Z" fill="#00F837"/>
</svg>
