<svg width="64" height="64" viewBox="0 0 64 64" fill="none" xmlns="http://www.w3.org/2000/svg">
<path d="M58.5143 10.5143H5.48571C2.70851 10.5143 0.457142 12.7657 0.457142 15.5429V48.4571C0.457142 51.2343 2.70851 53.4857 5.48571 53.4857H58.5143C61.2915 53.4857 63.5429 51.2343 63.5429 48.4571V15.5429C63.5429 12.7657 61.2915 10.5143 58.5143 10.5143Z" fill="white" stroke="#D9D9D9" stroke-width="0.914286"/>
<path fill-rule="evenodd" clip-rule="evenodd" d="M19.429 39.7865H15.5519L12.6445 28.6946C12.5065 28.1844 12.2135 27.7333 11.7825 27.5207C10.7068 26.9865 9.52155 26.5613 8.22857 26.3469V25.9198H14.4743C15.3364 25.9198 15.9829 26.5613 16.0906 27.3063L17.5992 35.3073L21.4745 25.9198H25.2438L19.429 39.7865ZM27.3989 39.7865H23.7372L26.7524 25.9198H30.414L27.3989 39.7865ZM35.1513 29.7613C35.2591 29.0145 35.9056 28.5874 36.6598 28.5874C37.8451 28.4802 39.1362 28.6947 40.2138 29.2271L40.8602 26.2415C39.7827 25.8144 38.5975 25.6 37.5218 25.6C33.9679 25.6 31.3818 27.5207 31.3818 30.1865C31.3818 32.2145 33.2136 33.2793 34.5067 33.9207C35.9056 34.5604 36.4443 34.9874 36.3365 35.6271C36.3365 36.5865 35.2591 37.0136 34.1834 37.0136C32.8904 37.0136 31.5973 36.6938 30.414 36.1595L29.7675 39.1469C31.0605 39.6793 32.4594 39.8938 33.7524 39.8938C37.7373 39.9991 40.2138 38.0802 40.2138 35.2C40.2138 31.5729 35.1513 31.3604 35.1513 29.7613ZM53.0286 39.7865L50.1211 25.9198H46.9983C46.3517 25.9198 45.7052 26.3469 45.4897 26.9865L40.106 39.7865H43.8754L44.6277 37.7604H49.2592L49.6901 39.7865H53.0286ZM47.537 29.6541L48.6127 34.8802H45.5975L47.537 29.6541Z" fill="#172B85"/>
</svg>
